# Approximate Interbotix PincherX-100 model generated from supplied quick-spec drawing
# Units: millimeters
mtllib px100_approx.mtl

o base_plate
usemtl dark
v -116.770000 -82.500000 0.000000
v -116.770000 -82.500000 6.000000
v -116.770000 82.500000 0.000000
v -116.770000 82.500000 6.000000
v 116.770000 -82.500000 0.000000
v 116.770000 -82.500000 6.000000
v 116.770000 82.500000 0.000000
v 116.770000 82.500000 6.000000
f 2 4 1
f 5 2 1
f 1 4 3
f 3 5 1
f 2 8 4
f 6 2 5
f 6 8 2
f 4 8 3
f 7 5 3
f 3 8 7
f 7 6 5
f 8 6 7

o base_upper
usemtl mid
v -57.500000 -57.500000 6.000000
v -57.500000 -57.500000 24.000000
v -57.500000 57.500000 6.000000
v -57.500000 57.500000 24.000000
v 77.500000 -57.500000 6.000000
v 77.500000 -57.500000 24.000000
v 77.500000 57.500000 6.000000
v 77.500000 57.500000 24.000000
f 10 12 9
f 13 10 9
f 9 12 11
f 11 13 9
f 10 16 12
f 14 10 13
f 14 16 10
f 12 16 11
f 15 13 11
f 11 16 15
f 15 14 13
f 16 14 15

o base_turntable
usemtl light
v 10.000000 0.000000 24.000000
v 58.000000 0.000000 24.000000
v 58.000000 0.000000 38.000000
v 10.000000 0.000000 38.000000
v 57.077693 9.364335 24.000000
v 57.077693 9.364335 38.000000
v 54.346218 18.368805 24.000000
v 54.346218 18.368805 38.000000
v 49.910541 26.667371 24.000000
v 49.910541 26.667371 38.000000
v 43.941125 33.941125 24.000000
v 43.941125 33.941125 38.000000
v 36.667371 39.910541 24.000000
v 36.667371 39.910541 38.000000
v 28.368805 44.346218 24.000000
v 28.368805 44.346218 38.000000
v 19.364335 47.077693 24.000000
v 19.364335 47.077693 38.000000
v 10.000000 48.000000 24.000000
v 10.000000 48.000000 38.000000
v 0.635665 47.077693 24.000000
v 0.635665 47.077693 38.000000
v -8.368805 44.346218 24.000000
v -8.368805 44.346218 38.000000
v -16.667371 39.910541 24.000000
v -16.667371 39.910541 38.000000
v -23.941125 33.941125 24.000000
v -23.941125 33.941125 38.000000
v -29.910541 26.667371 24.000000
v -29.910541 26.667371 38.000000
v -34.346218 18.368805 24.000000
v -34.346218 18.368805 38.000000
v -37.077693 9.364335 24.000000
v -37.077693 9.364335 38.000000
v -38.000000 0.000000 24.000000
v -38.000000 0.000000 38.000000
v -37.077693 -9.364335 24.000000
v -37.077693 -9.364335 38.000000
v -34.346218 -18.368805 24.000000
v -34.346218 -18.368805 38.000000
v -29.910541 -26.667371 24.000000
v -29.910541 -26.667371 38.000000
v -23.941125 -33.941125 24.000000
v -23.941125 -33.941125 38.000000
v -16.667371 -39.910541 24.000000
v -16.667371 -39.910541 38.000000
v -8.368805 -44.346218 24.000000
v -8.368805 -44.346218 38.000000
v 0.635665 -47.077693 24.000000
v 0.635665 -47.077693 38.000000
v 10.000000 -48.000000 24.000000
v 10.000000 -48.000000 38.000000
v 19.364335 -47.077693 24.000000
v 19.364335 -47.077693 38.000000
v 28.368805 -44.346218 24.000000
v 28.368805 -44.346218 38.000000
v 36.667371 -39.910541 24.000000
v 36.667371 -39.910541 38.000000
v 43.941125 -33.941125 24.000000
v 43.941125 -33.941125 38.000000
v 49.910541 -26.667371 24.000000
v 49.910541 -26.667371 38.000000
v 54.346218 -18.368805 24.000000
v 54.346218 -18.368805 38.000000
v 57.077693 -9.364335 24.000000
v 57.077693 -9.364335 38.000000
f 18 17 21
f 18 21 19
f 19 21 22
f 19 22 20
f 21 17 23
f 21 23 22
f 22 23 24
f 22 24 20
f 23 17 25
f 23 25 24
f 24 25 26
f 24 26 20
f 25 17 27
f 25 27 26
f 26 27 28
f 26 28 20
f 27 17 29
f 27 29 28
f 28 29 30
f 28 30 20
f 29 17 31
f 29 31 30
f 30 31 32
f 30 32 20
f 31 17 33
f 31 33 32
f 32 33 34
f 32 34 20
f 33 17 35
f 33 35 34
f 34 35 36
f 34 36 20
f 35 17 37
f 35 37 36
f 36 37 38
f 36 38 20
f 37 17 39
f 37 39 38
f 38 39 40
f 38 40 20
f 39 17 41
f 39 41 40
f 40 41 42
f 40 42 20
f 41 17 43
f 41 43 42
f 42 43 44
f 42 44 20
f 43 17 45
f 43 45 44
f 44 45 46
f 44 46 20
f 45 17 47
f 45 47 46
f 46 47 48
f 46 48 20
f 47 17 49
f 47 49 48
f 48 49 50
f 48 50 20
f 49 17 51
f 49 51 50
f 50 51 52
f 50 52 20
f 51 17 53
f 51 53 52
f 52 53 54
f 52 54 20
f 53 17 55
f 53 55 54
f 54 55 56
f 54 56 20
f 55 17 57
f 55 57 56
f 56 57 58
f 56 58 20
f 57 17 59
f 57 59 58
f 58 59 60
f 58 60 20
f 59 17 61
f 59 61 60
f 60 61 62
f 60 62 20
f 61 17 63
f 61 63 62
f 62 63 64
f 62 64 20
f 63 17 65
f 63 65 64
f 64 65 66
f 64 66 20
f 65 17 67
f 65 67 66
f 66 67 68
f 66 68 20
f 67 17 69
f 67 69 68
f 68 69 70
f 68 70 20
f 69 17 71
f 69 71 70
f 70 71 72
f 70 72 20
f 71 17 73
f 71 73 72
f 72 73 74
f 72 74 20
f 73 17 75
f 73 75 74
f 74 75 76
f 74 76 20
f 75 17 77
f 75 77 76
f 76 77 78
f 76 78 20
f 77 17 79
f 77 79 78
f 78 79 80
f 78 80 20
f 79 17 81
f 79 81 80
f 80 81 82
f 80 82 20
f 81 17 18
f 81 18 82
f 82 18 19
f 82 19 20

o pedestal
usemtl dark
v -12.500000 -24.000000 37.500000
v -12.500000 -24.000000 92.500000
v -12.500000 24.000000 37.500000
v -12.500000 24.000000 92.500000
v 32.500000 -24.000000 37.500000
v 32.500000 -24.000000 92.500000
v 32.500000 24.000000 37.500000
v 32.500000 24.000000 92.500000
f 84 86 83
f 87 84 83
f 83 86 85
f 85 87 83
f 84 90 86
f 88 84 87
f 88 90 84
f 86 90 85
f 89 87 85
f 85 90 89
f 89 88 87
f 90 88 89

o shoulder_joint
usemtl mid
v 10.000000 28.000000 96.000000
v 32.000000 28.000000 96.000000
v 32.000000 -28.000000 96.000000
v 10.000000 -28.000000 96.000000
v 31.577276 28.000000 100.291987
v 31.577276 -28.000000 100.291987
v 30.325350 28.000000 104.419036
v 30.325350 -28.000000 104.419036
v 28.292331 28.000000 108.222545
v 28.292331 -28.000000 108.222545
v 25.556349 28.000000 111.556349
v 25.556349 -28.000000 111.556349
v 22.222545 28.000000 114.292331
v 22.222545 -28.000000 114.292331
v 18.419036 28.000000 116.325350
v 18.419036 -28.000000 116.325350
v 14.291987 28.000000 117.577276
v 14.291987 -28.000000 117.577276
v 10.000000 28.000000 118.000000
v 10.000000 -28.000000 118.000000
v 5.708013 28.000000 117.577276
v 5.708013 -28.000000 117.577276
v 1.580964 28.000000 116.325350
v 1.580964 -28.000000 116.325350
v -2.222545 28.000000 114.292331
v -2.222545 -28.000000 114.292331
v -5.556349 28.000000 111.556349
v -5.556349 -28.000000 111.556349
v -8.292331 28.000000 108.222545
v -8.292331 -28.000000 108.222545
v -10.325350 28.000000 104.419036
v -10.325350 -28.000000 104.419036
v -11.577276 28.000000 100.291987
v -11.577276 -28.000000 100.291987
v -12.000000 28.000000 96.000000
v -12.000000 -28.000000 96.000000
v -11.577276 28.000000 91.708013
v -11.577276 -28.000000 91.708013
v -10.325350 28.000000 87.580964
v -10.325350 -28.000000 87.580964
v -8.292331 28.000000 83.777455
v -8.292331 -28.000000 83.777455
v -5.556349 28.000000 80.443651
v -5.556349 -28.000000 80.443651
v -2.222545 28.000000 77.707669
v -2.222545 -28.000000 77.707669
v 1.580964 28.000000 75.674650
v 1.580964 -28.000000 75.674650
v 5.708013 28.000000 74.422724
v 5.708013 -28.000000 74.422724
v 10.000000 28.000000 74.000000
v 10.000000 -28.000000 74.000000
v 14.291987 28.000000 74.422724
v 14.291987 -28.000000 74.422724
v 18.419036 28.000000 75.674650
v 18.419036 -28.000000 75.674650
v 22.222545 28.000000 77.707669
v 22.222545 -28.000000 77.707669
v 25.556349 28.000000 80.443651
v 25.556349 -28.000000 80.443651
v 28.292331 28.000000 83.777455
v 28.292331 -28.000000 83.777455
v 30.325350 28.000000 87.580964
v 30.325350 -28.000000 87.580964
v 31.577276 28.000000 91.708013
v 31.577276 -28.000000 91.708013
f 92 91 95
f 92 95 93
f 93 95 96
f 93 96 94
f 95 91 97
f 95 97 96
f 96 97 98
f 96 98 94
f 97 91 99
f 97 99 98
f 98 99 100
f 98 100 94
f 99 91 101
f 99 101 100
f 100 101 102
f 100 102 94
f 101 91 103
f 101 103 102
f 102 103 104
f 102 104 94
f 103 91 105
f 103 105 104
f 104 105 106
f 104 106 94
f 105 91 107
f 105 107 106
f 106 107 108
f 106 108 94
f 107 91 109
f 107 109 108
f 108 109 110
f 108 110 94
f 109 91 111
f 109 111 110
f 110 111 112
f 110 112 94
f 111 91 113
f 111 113 112
f 112 113 114
f 112 114 94
f 113 91 115
f 113 115 114
f 114 115 116
f 114 116 94
f 115 91 117
f 115 117 116
f 116 117 118
f 116 118 94
f 117 91 119
f 117 119 118
f 118 119 120
f 118 120 94
f 119 91 121
f 119 121 120
f 120 121 122
f 120 122 94
f 121 91 123
f 121 123 122
f 122 123 124
f 122 124 94
f 123 91 125
f 123 125 124
f 124 125 126
f 124 126 94
f 125 91 127
f 125 127 126
f 126 127 128
f 126 128 94
f 127 91 129
f 127 129 128
f 128 129 130
f 128 130 94
f 129 91 131
f 129 131 130
f 130 131 132
f 130 132 94
f 131 91 133
f 131 133 132
f 132 133 134
f 132 134 94
f 133 91 135
f 133 135 134
f 134 135 136
f 134 136 94
f 135 91 137
f 135 137 136
f 136 137 138
f 136 138 94
f 137 91 139
f 137 139 138
f 138 139 140
f 138 140 94
f 139 91 141
f 139 141 140
f 140 141 142
f 140 142 94
f 141 91 143
f 141 143 142
f 142 143 144
f 142 144 94
f 143 91 145
f 143 145 144
f 144 145 146
f 144 146 94
f 145 91 147
f 145 147 146
f 146 147 148
f 146 148 94
f 147 91 149
f 147 149 148
f 148 149 150
f 148 150 94
f 149 91 151
f 149 151 150
f 150 151 152
f 150 152 94
f 151 91 153
f 151 153 152
f 152 153 154
f 152 154 94
f 153 91 155
f 153 155 154
f 154 155 156
f 154 156 94
f 155 91 92
f 155 92 156
f 156 92 93
f 156 93 94

o upper_arm
usemtl light
v 25.000000 -12.000000 96.000000
v -5.000000 -12.000000 96.000000
v 25.000000 12.000000 96.000000
v -5.000000 12.000000 96.000000
v 25.000000 -12.000000 196.000000
v -5.000000 -12.000000 196.000000
v 25.000000 12.000000 196.000000
v -5.000000 12.000000 196.000000
f 158 160 157
f 161 158 157
f 157 160 159
f 159 161 157
f 158 164 160
f 162 158 161
f 162 164 158
f 160 164 159
f 163 161 159
f 159 164 163
f 163 162 161
f 164 162 163

o elbow_joint
usemtl dark
v 10.000000 25.000000 196.000000
v 30.000000 25.000000 196.000000
v 30.000000 -25.000000 196.000000
v 10.000000 -25.000000 196.000000
v 29.615706 25.000000 199.901806
v 29.615706 -25.000000 199.901806
v 28.477591 25.000000 203.653669
v 28.477591 -25.000000 203.653669
v 26.629392 25.000000 207.111405
v 26.629392 -25.000000 207.111405
v 24.142136 25.000000 210.142136
v 24.142136 -25.000000 210.142136
v 21.111405 25.000000 212.629392
v 21.111405 -25.000000 212.629392
v 17.653669 25.000000 214.477591
v 17.653669 -25.000000 214.477591
v 13.901806 25.000000 215.615706
v 13.901806 -25.000000 215.615706
v 10.000000 25.000000 216.000000
v 10.000000 -25.000000 216.000000
v 6.098194 25.000000 215.615706
v 6.098194 -25.000000 215.615706
v 2.346331 25.000000 214.477591
v 2.346331 -25.000000 214.477591
v -1.111405 25.000000 212.629392
v -1.111405 -25.000000 212.629392
v -4.142136 25.000000 210.142136
v -4.142136 -25.000000 210.142136
v -6.629392 25.000000 207.111405
v -6.629392 -25.000000 207.111405
v -8.477591 25.000000 203.653669
v -8.477591 -25.000000 203.653669
v -9.615706 25.000000 199.901806
v -9.615706 -25.000000 199.901806
v -10.000000 25.000000 196.000000
v -10.000000 -25.000000 196.000000
v -9.615706 25.000000 192.098194
v -9.615706 -25.000000 192.098194
v -8.477591 25.000000 188.346331
v -8.477591 -25.000000 188.346331
v -6.629392 25.000000 184.888595
v -6.629392 -25.000000 184.888595
v -4.142136 25.000000 181.857864
v -4.142136 -25.000000 181.857864
v -1.111405 25.000000 179.370608
v -1.111405 -25.000000 179.370608
v 2.346331 25.000000 177.522409
v 2.346331 -25.000000 177.522409
v 6.098194 25.000000 176.384294
v 6.098194 -25.000000 176.384294
v 10.000000 25.000000 176.000000
v 10.000000 -25.000000 176.000000
v 13.901806 25.000000 176.384294
v 13.901806 -25.000000 176.384294
v 17.653669 25.000000 177.522409
v 17.653669 -25.000000 177.522409
v 21.111405 25.000000 179.370608
v 21.111405 -25.000000 179.370608
v 24.142136 25.000000 181.857864
v 24.142136 -25.000000 181.857864
v 26.629392 25.000000 184.888595
v 26.629392 -25.000000 184.888595
v 28.477591 25.000000 188.346331
v 28.477591 -25.000000 188.346331
v 29.615706 25.000000 192.098194
v 29.615706 -25.000000 192.098194
f 166 165 169
f 166 169 167
f 167 169 170
f 167 170 168
f 169 165 171
f 169 171 170
f 170 171 172
f 170 172 168
f 171 165 173
f 171 173 172
f 172 173 174
f 172 174 168
f 173 165 175
f 173 175 174
f 174 175 176
f 174 176 168
f 175 165 177
f 175 177 176
f 176 177 178
f 176 178 168
f 177 165 179
f 177 179 178
f 178 179 180
f 178 180 168
f 179 165 181
f 179 181 180
f 180 181 182
f 180 182 168
f 181 165 183
f 181 183 182
f 182 183 184
f 182 184 168
f 183 165 185
f 183 185 184
f 184 185 186
f 184 186 168
f 185 165 187
f 185 187 186
f 186 187 188
f 186 188 168
f 187 165 189
f 187 189 188
f 188 189 190
f 188 190 168
f 189 165 191
f 189 191 190
f 190 191 192
f 190 192 168
f 191 165 193
f 191 193 192
f 192 193 194
f 192 194 168
f 193 165 195
f 193 195 194
f 194 195 196
f 194 196 168
f 195 165 197
f 195 197 196
f 196 197 198
f 196 198 168
f 197 165 199
f 197 199 198
f 198 199 200
f 198 200 168
f 199 165 201
f 199 201 200
f 200 201 202
f 200 202 168
f 201 165 203
f 201 203 202
f 202 203 204
f 202 204 168
f 203 165 205
f 203 205 204
f 204 205 206
f 204 206 168
f 205 165 207
f 205 207 206
f 206 207 208
f 206 208 168
f 207 165 209
f 207 209 208
f 208 209 210
f 208 210 168
f 209 165 211
f 209 211 210
f 210 211 212
f 210 212 168
f 211 165 213
f 211 213 212
f 212 213 214
f 212 214 168
f 213 165 215
f 213 215 214
f 214 215 216
f 214 216 168
f 215 165 217
f 215 217 216
f 216 217 218
f 216 218 168
f 217 165 219
f 217 219 218
f 218 219 220
f 218 220 168
f 219 165 221
f 219 221 220
f 220 221 222
f 220 222 168
f 221 165 223
f 221 223 222
f 222 223 224
f 222 224 168
f 223 165 225
f 223 225 224
f 224 225 226
f 224 226 168
f 225 165 227
f 225 227 226
f 226 227 228
f 226 228 168
f 227 165 229
f 227 229 228
f 228 229 230
f 228 230 168
f 229 165 166
f 229 166 230
f 230 166 167
f 230 167 168

o forearm
usemtl mid
v 10.000000 -11.000000 182.000000
v 10.000000 -11.000000 210.000000
v 10.000000 11.000000 182.000000
v 10.000000 11.000000 210.000000
v 110.000000 -11.000000 182.000000
v 110.000000 -11.000000 210.000000
v 110.000000 11.000000 182.000000
v 110.000000 11.000000 210.000000
f 232 234 231
f 235 232 231
f 231 234 233
f 233 235 231
f 232 238 234
f 236 232 235
f 236 238 232
f 234 238 233
f 237 235 233
f 233 238 237
f 237 236 235
f 238 236 237

o wrist_joint_1
usemtl light
v 110.000000 23.000000 196.000000
v 128.000000 23.000000 196.000000
v 128.000000 -23.000000 196.000000
v 110.000000 -23.000000 196.000000
v 127.654135 23.000000 199.511626
v 127.654135 -23.000000 199.511626
v 126.629832 23.000000 202.888302
v 126.629832 -23.000000 202.888302
v 124.966453 23.000000 206.000264
v 124.966453 -23.000000 206.000264
v 122.727922 23.000000 208.727922
v 122.727922 -23.000000 208.727922
v 120.000264 23.000000 210.966453
v 120.000264 -23.000000 210.966453
v 116.888302 23.000000 212.629832
v 116.888302 -23.000000 212.629832
v 113.511626 23.000000 213.654135
v 113.511626 -23.000000 213.654135
v 110.000000 23.000000 214.000000
v 110.000000 -23.000000 214.000000
v 106.488374 23.000000 213.654135
v 106.488374 -23.000000 213.654135
v 103.111698 23.000000 212.629832
v 103.111698 -23.000000 212.629832
v 99.999736 23.000000 210.966453
v 99.999736 -23.000000 210.966453
v 97.272078 23.000000 208.727922
v 97.272078 -23.000000 208.727922
v 95.033547 23.000000 206.000264
v 95.033547 -23.000000 206.000264
v 93.370168 23.000000 202.888302
v 93.370168 -23.000000 202.888302
v 92.345865 23.000000 199.511626
v 92.345865 -23.000000 199.511626
v 92.000000 23.000000 196.000000
v 92.000000 -23.000000 196.000000
v 92.345865 23.000000 192.488374
v 92.345865 -23.000000 192.488374
v 93.370168 23.000000 189.111698
v 93.370168 -23.000000 189.111698
v 95.033547 23.000000 185.999736
v 95.033547 -23.000000 185.999736
v 97.272078 23.000000 183.272078
v 97.272078 -23.000000 183.272078
v 99.999736 23.000000 181.033547
v 99.999736 -23.000000 181.033547
v 103.111698 23.000000 179.370168
v 103.111698 -23.000000 179.370168
v 106.488374 23.000000 178.345865
v 106.488374 -23.000000 178.345865
v 110.000000 23.000000 178.000000
v 110.000000 -23.000000 178.000000
v 113.511626 23.000000 178.345865
v 113.511626 -23.000000 178.345865
v 116.888302 23.000000 179.370168
v 116.888302 -23.000000 179.370168
v 120.000264 23.000000 181.033547
v 120.000264 -23.000000 181.033547
v 122.727922 23.000000 183.272078
v 122.727922 -23.000000 183.272078
v 124.966453 23.000000 185.999736
v 124.966453 -23.000000 185.999736
v 126.629832 23.000000 189.111698
v 126.629832 -23.000000 189.111698
v 127.654135 23.000000 192.488374
v 127.654135 -23.000000 192.488374
f 240 239 243
f 240 243 241
f 241 243 244
f 241 244 242
f 243 239 245
f 243 245 244
f 244 245 246
f 244 246 242
f 245 239 247
f 245 247 246
f 246 247 248
f 246 248 242
f 247 239 249
f 247 249 248
f 248 249 250
f 248 250 242
f 249 239 251
f 249 251 250
f 250 251 252
f 250 252 242
f 251 239 253
f 251 253 252
f 252 253 254
f 252 254 242
f 253 239 255
f 253 255 254
f 254 255 256
f 254 256 242
f 255 239 257
f 255 257 256
f 256 257 258
f 256 258 242
f 257 239 259
f 257 259 258
f 258 259 260
f 258 260 242
f 259 239 261
f 259 261 260
f 260 261 262
f 260 262 242
f 261 239 263
f 261 263 262
f 262 263 264
f 262 264 242
f 263 239 265
f 263 265 264
f 264 265 266
f 264 266 242
f 265 239 267
f 265 267 266
f 266 267 268
f 266 268 242
f 267 239 269
f 267 269 268
f 268 269 270
f 268 270 242
f 269 239 271
f 269 271 270
f 270 271 272
f 270 272 242
f 271 239 273
f 271 273 272
f 272 273 274
f 272 274 242
f 273 239 275
f 273 275 274
f 274 275 276
f 274 276 242
f 275 239 277
f 275 277 276
f 276 277 278
f 276 278 242
f 277 239 279
f 277 279 278
f 278 279 280
f 278 280 242
f 279 239 281
f 279 281 280
f 280 281 282
f 280 282 242
f 281 239 283
f 281 283 282
f 282 283 284
f 282 284 242
f 283 239 285
f 283 285 284
f 284 285 286
f 284 286 242
f 285 239 287
f 285 287 286
f 286 287 288
f 286 288 242
f 287 239 289
f 287 289 288
f 288 289 290
f 288 290 242
f 289 239 291
f 289 291 290
f 290 291 292
f 290 292 242
f 291 239 293
f 291 293 292
f 292 293 294
f 292 294 242
f 293 239 295
f 293 295 294
f 294 295 296
f 294 296 242
f 295 239 297
f 295 297 296
f 296 297 298
f 296 298 242
f 297 239 299
f 297 299 298
f 298 299 300
f 298 300 242
f 299 239 301
f 299 301 300
f 300 301 302
f 300 302 242
f 301 239 303
f 301 303 302
f 302 303 304
f 302 304 242
f 303 239 240
f 303 240 304
f 304 240 241
f 304 241 242

o wrist_link
usemtl dark
v 110.000000 -10.000000 184.000000
v 110.000000 -10.000000 208.000000
v 110.000000 10.000000 184.000000
v 110.000000 10.000000 208.000000
v 176.000000 -10.000000 184.000000
v 176.000000 -10.000000 208.000000
v 176.000000 10.000000 184.000000
v 176.000000 10.000000 208.000000
f 306 308 305
f 309 306 305
f 305 308 307
f 307 309 305
f 306 312 308
f 310 306 309
f 310 312 306
f 308 312 307
f 311 309 307
f 307 312 311
f 311 310 309
f 312 310 311

o wrist_joint_2
usemtl mid
v 176.000000 21.000000 196.000000
v 192.000000 21.000000 196.000000
v 192.000000 -21.000000 196.000000
v 176.000000 -21.000000 196.000000
v 191.692564 21.000000 199.121445
v 191.692564 -21.000000 199.121445
v 190.782073 21.000000 202.122935
v 190.782073 -21.000000 202.122935
v 189.303514 21.000000 204.889124
v 189.303514 -21.000000 204.889124
v 187.313708 21.000000 207.313708
v 187.313708 -21.000000 207.313708
v 184.889124 21.000000 209.303514
v 184.889124 -21.000000 209.303514
v 182.122935 21.000000 210.782073
v 182.122935 -21.000000 210.782073
v 179.121445 21.000000 211.692564
v 179.121445 -21.000000 211.692564
v 176.000000 21.000000 212.000000
v 176.000000 -21.000000 212.000000
v 172.878555 21.000000 211.692564
v 172.878555 -21.000000 211.692564
v 169.877065 21.000000 210.782073
v 169.877065 -21.000000 210.782073
v 167.110876 21.000000 209.303514
v 167.110876 -21.000000 209.303514
v 164.686292 21.000000 207.313708
v 164.686292 -21.000000 207.313708
v 162.696486 21.000000 204.889124
v 162.696486 -21.000000 204.889124
v 161.217927 21.000000 202.122935
v 161.217927 -21.000000 202.122935
v 160.307436 21.000000 199.121445
v 160.307436 -21.000000 199.121445
v 160.000000 21.000000 196.000000
v 160.000000 -21.000000 196.000000
v 160.307436 21.000000 192.878555
v 160.307436 -21.000000 192.878555
v 161.217927 21.000000 189.877065
v 161.217927 -21.000000 189.877065
v 162.696486 21.000000 187.110876
v 162.696486 -21.000000 187.110876
v 164.686292 21.000000 184.686292
v 164.686292 -21.000000 184.686292
v 167.110876 21.000000 182.696486
v 167.110876 -21.000000 182.696486
v 169.877065 21.000000 181.217927
v 169.877065 -21.000000 181.217927
v 172.878555 21.000000 180.307436
v 172.878555 -21.000000 180.307436
v 176.000000 21.000000 180.000000
v 176.000000 -21.000000 180.000000
v 179.121445 21.000000 180.307436
v 179.121445 -21.000000 180.307436
v 182.122935 21.000000 181.217927
v 182.122935 -21.000000 181.217927
v 184.889124 21.000000 182.696486
v 184.889124 -21.000000 182.696486
v 187.313708 21.000000 184.686292
v 187.313708 -21.000000 184.686292
v 189.303514 21.000000 187.110876
v 189.303514 -21.000000 187.110876
v 190.782073 21.000000 189.877065
v 190.782073 -21.000000 189.877065
v 191.692564 21.000000 192.878555
v 191.692564 -21.000000 192.878555
f 314 313 317
f 314 317 315
f 315 317 318
f 315 318 316
f 317 313 319
f 317 319 318
f 318 319 320
f 318 320 316
f 319 313 321
f 319 321 320
f 320 321 322
f 320 322 316
f 321 313 323
f 321 323 322
f 322 323 324
f 322 324 316
f 323 313 325
f 323 325 324
f 324 325 326
f 324 326 316
f 325 313 327
f 325 327 326
f 326 327 328
f 326 328 316
f 327 313 329
f 327 329 328
f 328 329 330
f 328 330 316
f 329 313 331
f 329 331 330
f 330 331 332
f 330 332 316
f 331 313 333
f 331 333 332
f 332 333 334
f 332 334 316
f 333 313 335
f 333 335 334
f 334 335 336
f 334 336 316
f 335 313 337
f 335 337 336
f 336 337 338
f 336 338 316
f 337 313 339
f 337 339 338
f 338 339 340
f 338 340 316
f 339 313 341
f 339 341 340
f 340 341 342
f 340 342 316
f 341 313 343
f 341 343 342
f 342 343 344
f 342 344 316
f 343 313 345
f 343 345 344
f 344 345 346
f 344 346 316
f 345 313 347
f 345 347 346
f 346 347 348
f 346 348 316
f 347 313 349
f 347 349 348
f 348 349 350
f 348 350 316
f 349 313 351
f 349 351 350
f 350 351 352
f 350 352 316
f 351 313 353
f 351 353 352
f 352 353 354
f 352 354 316
f 353 313 355
f 353 355 354
f 354 355 356
f 354 356 316
f 355 313 357
f 355 357 356
f 356 357 358
f 356 358 316
f 357 313 359
f 357 359 358
f 358 359 360
f 358 360 316
f 359 313 361
f 359 361 360
f 360 361 362
f 360 362 316
f 361 313 363
f 361 363 362
f 362 363 364
f 362 364 316
f 363 313 365
f 363 365 364
f 364 365 366
f 364 366 316
f 365 313 367
f 365 367 366
f 366 367 368
f 366 368 316
f 367 313 369
f 367 369 368
f 368 369 370
f 368 370 316
f 369 313 371
f 369 371 370
f 370 371 372
f 370 372 316
f 371 313 373
f 371 373 372
f 372 373 374
f 372 374 316
f 373 313 375
f 373 375 374
f 374 375 376
f 374 376 316
f 375 313 377
f 375 377 376
f 376 377 378
f 376 378 316
f 377 313 314
f 377 314 378
f 378 314 315
f 378 315 316

o gripper_mount_link
usemtl light
v 176.000000 -10.000000 185.000000
v 176.000000 -10.000000 207.000000
v 176.000000 10.000000 185.000000
v 176.000000 10.000000 207.000000
v 215.000000 -10.000000 185.000000
v 215.000000 -10.000000 207.000000
v 215.000000 10.000000 185.000000
v 215.000000 10.000000 207.000000
f 380 382 379
f 383 380 379
f 379 382 381
f 381 383 379
f 380 386 382
f 384 380 383
f 384 386 380
f 382 386 381
f 385 383 381
f 381 386 385
f 385 384 383
f 386 384 385

o gripper_palm
usemtl dark
v 214.500000 -25.000000 177.000000
v 214.500000 -25.000000 215.000000
v 214.500000 25.000000 177.000000
v 214.500000 25.000000 215.000000
v 249.500000 -25.000000 177.000000
v 249.500000 -25.000000 215.000000
v 249.500000 25.000000 177.000000
v 249.500000 25.000000 215.000000
f 388 390 387
f 391 388 387
f 387 390 389
f 389 391 387
f 388 394 390
f 392 388 391
f 392 394 388
f 390 394 389
f 393 391 389
f 389 394 393
f 393 392 391
f 394 392 393

o left_finger_base
usemtl mid
v 242.000000 18.000000 184.000000
v 242.000000 18.000000 208.000000
v 242.000000 28.000000 184.000000
v 242.000000 28.000000 208.000000
v 262.000000 18.000000 184.000000
v 262.000000 18.000000 208.000000
v 262.000000 28.000000 184.000000
v 262.000000 28.000000 208.000000
f 396 398 395
f 399 396 395
f 395 398 397
f 397 399 395
f 396 402 398
f 400 396 399
f 400 402 396
f 398 402 397
f 401 399 397
f 397 402 401
f 401 400 399
f 402 400 401

o left_finger
usemtl light
v 251.908505 20.507774 187.000000
v 251.908505 20.507774 205.000000
v 250.655947 29.420186 187.000000
v 250.655947 29.420186 205.000000
v 309.344053 28.579814 187.000000
v 309.344053 28.579814 205.000000
v 308.091495 37.492226 187.000000
v 308.091495 37.492226 205.000000
f 404 406 403
f 407 404 403
f 403 406 405
f 405 407 403
f 404 410 406
f 408 404 407
f 408 410 404
f 406 410 405
f 409 407 405
f 405 410 409
f 409 408 407
f 410 408 409

o right_finger_base
usemtl dark
v 242.000000 -28.000000 184.000000
v 242.000000 -28.000000 208.000000
v 242.000000 -18.000000 184.000000
v 242.000000 -18.000000 208.000000
v 262.000000 -28.000000 184.000000
v 262.000000 -28.000000 208.000000
v 262.000000 -18.000000 184.000000
v 262.000000 -18.000000 208.000000
f 412 414 411
f 415 412 411
f 411 414 413
f 413 415 411
f 412 418 414
f 416 412 415
f 416 418 412
f 414 418 413
f 417 415 413
f 413 418 417
f 417 416 415
f 418 416 417

o right_finger
usemtl mid
v 250.655947 -29.420186 187.000000
v 250.655947 -29.420186 205.000000
v 251.908505 -20.507774 187.000000
v 251.908505 -20.507774 205.000000
v 308.091495 -37.492226 187.000000
v 308.091495 -37.492226 205.000000
v 309.344053 -28.579814 187.000000
v 309.344053 -28.579814 205.000000
f 420 422 419
f 423 420 419
f 419 422 421
f 421 423 419
f 420 426 422
f 424 420 423
f 424 426 420
f 422 426 421
f 425 423 421
f 421 426 425
f 425 424 423
f 426 424 425

o shoulder_servo
usemtl light
v -11.000000 -24.000000 106.000000
v -11.000000 -24.000000 146.000000
v -11.000000 24.000000 106.000000
v -11.000000 24.000000 146.000000
v 31.000000 -24.000000 106.000000
v 31.000000 -24.000000 146.000000
v 31.000000 24.000000 106.000000
v 31.000000 24.000000 146.000000
f 428 430 427
f 431 428 427
f 427 430 429
f 429 431 427
f 428 434 430
f 432 428 431
f 432 434 428
f 430 434 429
f 433 431 429
f 429 434 433
f 433 432 431
f 434 432 433

o elbow_servo
usemtl dark
v 10.000000 -22.000000 178.000000
v 10.000000 -22.000000 214.000000
v 10.000000 22.000000 178.000000
v 10.000000 22.000000 214.000000
v 52.000000 -22.000000 178.000000
v 52.000000 -22.000000 214.000000
v 52.000000 22.000000 178.000000
v 52.000000 22.000000 214.000000
f 436 438 435
f 439 436 435
f 435 438 437
f 437 439 435
f 436 442 438
f 440 436 439
f 440 442 436
f 438 442 437
f 441 439 437
f 437 442 441
f 441 440 439
f 442 440 441

o wrist_servo
usemtl mid
v 114.000000 -20.000000 180.000000
v 114.000000 -20.000000 212.000000
v 114.000000 20.000000 180.000000
v 114.000000 20.000000 212.000000
v 150.000000 -20.000000 180.000000
v 150.000000 -20.000000 212.000000
v 150.000000 20.000000 180.000000
v 150.000000 20.000000 212.000000
f 444 446 443
f 447 444 443
f 443 446 445
f 445 447 443
f 444 450 446
f 448 444 447
f 448 450 444
f 446 450 445
f 449 447 445
f 445 450 449
f 449 448 447
f 450 448 449